<svg class="rich-terminal" viewBox="0 0 1190 733.1999999999999" xmlns="http://www.w3.org/2000/svg">
    <!-- Generated with Rich https://www.textualize.io -->
    <style>

    @font-face {
        font-family: "Fira Code";
        src: local("FiraCode-Regular"),
                url("https://cdnjs.cloudflare.com/ajax/libs/firacode/6.2.0/woff2/FiraCode-Regular.woff2") format("woff2"),
                url("https://cdnjs.cloudflare.com/ajax/libs/firacode/6.2.0/woff/FiraCode-Regular.woff") format("woff");
        font-style: normal;
        font-weight: 400;
    }
    @font-face {
        font-family: "Fira Code";
        src: local("FiraCode-Bold"),
                url("https://cdnjs.cloudflare.com/ajax/libs/firacode/6.2.0/woff2/FiraCode-Bold.woff2") format("woff2"),
                url("https://cdnjs.cloudflare.com/ajax/libs/firacode/6.2.0/woff/FiraCode-Bold.woff") format("woff");
        font-style: bold;
        font-weight: 700;
    }

    .terminal-2571827466-matrix {
        font-family: Fira Code, monospace;
        font-size: 20px;
        line-height: 24.4px;
        font-variant-east-asian: full-width;
    }

    .terminal-2571827466-title {
        font-size: 18px;
        font-weight: bold;
        font-family: arial;
    }

    .terminal-2571827466-r1 { fill: #c5c8c6 }
.terminal-2571827466-r2 { fill: #e0e0e0;font-weight: bold }
.terminal-2571827466-r3 { fill: #a0a0a0 }
.terminal-2571827466-r4 { fill: #e0e0e0 }
.terminal-2571827466-r5 { fill: #fd971f }
.terminal-2571827466-r6 { fill: #f4005f }
.terminal-2571827466-r7 { fill: #f6f6ef }
.terminal-2571827466-r8 { fill: #1e1e1e }
.terminal-2571827466-r9 { fill: #003054 }
.terminal-2571827466-r10 { fill: #7ae998 }
.terminal-2571827466-r11 { fill: #ffcf56 }
.terminal-2571827466-r12 { fill: #e76580 }
.terminal-2571827466-r13 { fill: #0a180e;font-weight: bold }
.terminal-2571827466-r14 { fill: #211505;font-weight: bold }
.terminal-2571827466-r15 { fill: #f5e5e9;font-weight: bold }
.terminal-2571827466-r16 { fill: #008139 }
.terminal-2571827466-r17 { fill: #b86b00 }
.terminal-2571827466-r18 { fill: #780028 }
.terminal-2571827466-r19 { fill: #ffa62b;font-weight: bold }
.terminal-2571827466-r20 { fill: #495259 }
    </style>

    <defs>
    <clipPath id="terminal-2571827466-clip-terminal">
      <rect x="0" y="0" width="1170.1999999999998" height="682.1999999999999" />
    </clipPath>
    <clipPath id="terminal-2571827466-line-0">
    <rect x="0" y="1.5" width="1171.2" height="24.65"/>
            </clipPath>
<clipPath id="terminal-2571827466-line-1">
    <rect x="0" y="25.9" width="1171.2" height="24.65"/>
            </clipPath>
<clipPath id="terminal-2571827466-line-2">
    <rect x="0" y="50.3" width="1171.2" height="24.65"/>
            </clipPath>
<clipPath id="terminal-2571827466-line-3">
    <rect x="0" y="74.7" width="1171.2" height="24.65"/>
            </clipPath>
<clipPath id="terminal-2571827466-line-4">
    <rect x="0" y="99.1" width="1171.2" height="24.65"/>
            </clipPath>
<clipPath id="terminal-2571827466-line-5">
    <rect x="0" y="123.5" width="1171.2" height="24.65"/>
            </clipPath>
<clipPath id="terminal-2571827466-line-6">
    <rect x="0" y="147.9" width="1171.2" height="24.65"/>
            </clipPath>
<clipPath id="terminal-2571827466-line-7">
    <rect x="0" y="172.3" width="1171.2" height="24.65"/>
            </clipPath>
<clipPath id="terminal-2571827466-line-8">
    <rect x="0" y="196.7" width="1171.2" height="24.65"/>
            </clipPath>
<clipPath id="terminal-2571827466-line-9">
    <rect x="0" y="221.1" width="1171.2" height="24.65"/>
            </clipPath>
<clipPath id="terminal-2571827466-line-10">
    <rect x="0" y="245.5" width="1171.2" height="24.65"/>
            </clipPath>
<clipPath id="terminal-2571827466-line-11">
    <rect x="0" y="269.9" width="1171.2" height="24.65"/>
            </clipPath>
<clipPath id="terminal-2571827466-line-12">
    <rect x="0" y="294.3" width="1171.2" height="24.65"/>
            </clipPath>
<clipPath id="terminal-2571827466-line-13">
    <rect x="0" y="318.7" width="1171.2" height="24.65"/>
            </clipPath>
<clipPath id="terminal-2571827466-line-14">
    <rect x="0" y="343.1" width="1171.2" height="24.65"/>
            </clipPath>
<clipPath id="terminal-2571827466-line-15">
    <rect x="0" y="367.5" width="1171.2" height="24.65"/>
            </clipPath>
<clipPath id="terminal-2571827466-line-16">
    <rect x="0" y="391.9" width="1171.2" height="24.65"/>
            </clipPath>
<clipPath id="terminal-2571827466-line-17">
    <rect x="0" y="416.3" width="1171.2" height="24.65"/>
            </clipPath>
<clipPath id="terminal-2571827466-line-18">
    <rect x="0" y="440.7" width="1171.2" height="24.65"/>
            </clipPath>
<clipPath id="terminal-2571827466-line-19">
    <rect x="0" y="465.1" width="1171.2" height="24.65"/>
            </clipPath>
<clipPath id="terminal-2571827466-line-20">
    <rect x="0" y="489.5" width="1171.2" height="24.65"/>
            </clipPath>
<clipPath id="terminal-2571827466-line-21">
    <rect x="0" y="513.9" width="1171.2" height="24.65"/>
            </clipPath>
<clipPath id="terminal-2571827466-line-22">
    <rect x="0" y="538.3" width="1171.2" height="24.65"/>
            </clipPath>
<clipPath id="terminal-2571827466-line-23">
    <rect x="0" y="562.7" width="1171.2" height="24.65"/>
            </clipPath>
<clipPath id="terminal-2571827466-line-24">
    <rect x="0" y="587.1" width="1171.2" height="24.65"/>
            </clipPath>
<clipPath id="terminal-2571827466-line-25">
    <rect x="0" y="611.5" width="1171.2" height="24.65"/>
            </clipPath>
<clipPath id="terminal-2571827466-line-26">
    <rect x="0" y="635.9" width="1171.2" height="24.65"/>
            </clipPath>
    </defs>

    <rect fill="#292929" stroke="rgba(255,255,255,0.35)" stroke-width="1" x="1" y="1" width="1188" height="731.2" rx="8"/><text class="terminal-2571827466-title" fill="#c5c8c6" text-anchor="middle" x="594" y="27">ApprovalApp</text>
            <g transform="translate(26,22)">
            <circle cx="0" cy="0" r="7" fill="#ff5f57"/>
            <circle cx="22" cy="0" r="7" fill="#febc2e"/>
            <circle cx="44" cy="0" r="7" fill="#28c840"/>
            </g>
        
    <g transform="translate(9, 41)" clip-path="url(#terminal-2571827466-clip-terminal)">
    <rect fill="#121212" x="0" y="1.5" width="280.6" height="24.65" shape-rendering="crispEdges"/><rect fill="#121212" x="280.6" y="1.5" width="890.6" height="24.65" shape-rendering="crispEdges"/><rect fill="#121212" x="0" y="25.9" width="24.4" height="24.65" shape-rendering="crispEdges"/><rect fill="#121212" x="24.4" y="25.9" width="231.8" height="24.65" shape-rendering="crispEdges"/><rect fill="#121212" x="256.2" y="25.9" width="24.4" height="24.65" shape-rendering="crispEdges"/><rect fill="#121212" x="280.6" y="25.9" width="890.6" height="24.65" shape-rendering="crispEdges"/><rect fill="#121212" x="0" y="50.3" width="24.4" height="24.65" shape-rendering="crispEdges"/><rect fill="#121212" x="24.4" y="50.3" width="646.6" height="24.65" shape-rendering="crispEdges"/><rect fill="#121212" x="671" y="50.3" width="475.8" height="24.65" shape-rendering="crispEdges"/><rect fill="#121212" x="1146.8" y="50.3" width="24.4" height="24.65" shape-rendering="crispEdges"/><rect fill="#121212" x="0" y="74.7" width="1171.2" height="24.65" shape-rendering="crispEdges"/><rect fill="#121212" x="0" y="99.1" width="12.2" height="24.65" shape-rendering="crispEdges"/><rect fill="#242f38" x="12.2" y="99.1" width="36.6" height="24.65" shape-rendering="crispEdges"/><rect fill="#242f38" x="48.8" y="99.1" width="122" height="24.65" shape-rendering="crispEdges"/><rect fill="#242f38" x="170.8" y="99.1" width="951.6" height="24.65" shape-rendering="crispEdges"/><rect fill="#242f38" x="1122.4" y="99.1" width="36.6" height="24.65" shape-rendering="crispEdges"/><rect fill="#121212" x="1159" y="99.1" width="12.2" height="24.65" shape-rendering="crispEdges"/><rect fill="#121212" x="0" y="123.5" width="12.2" height="24.65" shape-rendering="crispEdges"/><rect fill="#153854" x="12.2" y="123.5" width="36.6" height="24.65" shape-rendering="crispEdges"/><rect fill="#153854" x="48.8" y="123.5" width="122" height="24.65" shape-rendering="crispEdges"/><rect fill="#153854" x="170.8" y="123.5" width="951.6" height="24.65" shape-rendering="crispEdges"/><rect fill="#153854" x="1122.4" y="123.5" width="36.6" height="24.65" shape-rendering="crispEdges"/><rect fill="#121212" x="1159" y="123.5" width="12.2" height="24.65" shape-rendering="crispEdges"/><rect fill="#121212" x="0" y="147.9" width="12.2" height="24.65" shape-rendering="crispEdges"/><rect fill="#1e1e1e" x="12.2" y="147.9" width="36.6" height="24.65" shape-rendering="crispEdges"/><rect fill="#1e1e1e" x="48.8" y="147.9" width="12.2" height="24.65" shape-rendering="crispEdges"/><rect fill="#1e1e1e" x="61" y="147.9" width="73.2" height="24.65" shape-rendering="crispEdges"/><rect fill="#1e1e1e" x="134.2" y="147.9" width="36.6" height="24.65" shape-rendering="crispEdges"/><rect fill="#1e1e1e" x="170.8" y="147.9" width="951.6" height="24.65" shape-rendering="crispEdges"/><rect fill="#1e1e1e" x="1122.4" y="147.9" width="36.6" height="24.65" shape-rendering="crispEdges"/><rect fill="#121212" x="1159" y="147.9" width="12.2" height="24.65" shape-rendering="crispEdges"/><rect fill="#121212" x="0" y="172.3" width="12.2" height="24.65" shape-rendering="crispEdges"/><rect fill="#171717" x="12.2" y="172.3" width="36.6" height="24.65" shape-rendering="crispEdges"/><rect fill="#171717" x="48.8" y="172.3" width="12.2" height="24.65" shape-rendering="crispEdges"/><rect fill="#171717" x="61" y="172.3" width="48.8" height="24.65" shape-rendering="crispEdges"/><rect fill="#171717" x="109.8" y="172.3" width="61" height="24.65" shape-rendering="crispEdges"/><rect fill="#171717" x="170.8" y="172.3" width="951.6" height="24.65" shape-rendering="crispEdges"/><rect fill="#171717" x="1122.4" y="172.3" width="36.6" height="24.65" shape-rendering="crispEdges"/><rect fill="#121212" x="1159" y="172.3" width="12.2" height="24.65" shape-rendering="crispEdges"/><rect fill="#121212" x="0" y="196.7" width="12.2" height="24.65" shape-rendering="crispEdges"/><rect fill="#1e1e1e" x="12.2" y="196.7" width="36.6" height="24.65" shape-rendering="crispEdges"/><rect fill="#1e1e1e" x="48.8" y="196.7" width="12.2" height="24.65" shape-rendering="crispEdges"/><rect fill="#f4005f" x="61" y="196.7" width="97.6" height="24.65" shape-rendering="crispEdges"/><rect fill="#1e1e1e" x="158.6" y="196.7" width="12.2" height="24.65" shape-rendering="crispEdges"/><rect fill="#1e1e1e" x="170.8" y="196.7" width="951.6" height="24.65" shape-rendering="crispEdges"/><rect fill="#1e1e1e" x="1122.4" y="196.7" width="36.6" height="24.65" shape-rendering="crispEdges"/><rect fill="#121212" x="1159" y="196.7" width="12.2" height="24.65" shape-rendering="crispEdges"/><rect fill="#121212" x="0" y="221.1" width="12.2" height="24.65" shape-rendering="crispEdges"/><rect fill="#171717" x="12.2" y="221.1" width="36.6" height="24.65" shape-rendering="crispEdges"/><rect fill="#171717" x="48.8" y="221.1" width="12.2" height="24.65" shape-rendering="crispEdges"/><rect fill="#f4005f" x="61" y="221.1" width="97.6" height="24.65" shape-rendering="crispEdges"/><rect fill="#171717" x="158.6" y="221.1" width="12.2" height="24.65" shape-rendering="crispEdges"/><rect fill="#171717" x="170.8" y="221.1" width="951.6" height="24.65" shape-rendering="crispEdges"/><rect fill="#171717" x="1122.4" y="221.1" width="36.6" height="24.65" shape-rendering="crispEdges"/><rect fill="#121212" x="1159" y="221.1" width="12.2" height="24.65" shape-rendering="crispEdges"/><rect fill="#121212" x="0" y="245.5" width="12.2" height="24.65" shape-rendering="crispEdges"/><rect fill="#1e1e1e" x="12.2" y="245.5" width="1146.8" height="24.65" shape-rendering="crispEdges"/><rect fill="#121212" x="1159" y="245.5" width="12.2" height="24.65" shape-rendering="crispEdges"/><rect fill="#121212" x="0" y="269.9" width="12.2" height="24.65" shape-rendering="crispEdges"/><rect fill="#1e1e1e" x="12.2" y="269.9" width="1146.8" height="24.65" shape-rendering="crispEdges"/><rect fill="#121212" x="1159" y="269.9" width="12.2" height="24.65" shape-rendering="crispEdges"/><rect fill="#121212" x="0" y="294.3" width="12.2" height="24.65" shape-rendering="crispEdges"/><rect fill="#1e1e1e" x="12.2" y="294.3" width="1146.8" height="24.65" shape-rendering="crispEdges"/><rect fill="#121212" x="1159" y="294.3" width="12.2" height="24.65" shape-rendering="crispEdges"/><rect fill="#121212" x="0" y="318.7" width="12.2" height="24.65" shape-rendering="crispEdges"/><rect fill="#1e1e1e" x="12.2" y="318.7" width="1146.8" height="24.65" shape-rendering="crispEdges"/><rect fill="#121212" x="1159" y="318.7" width="12.2" height="24.65" shape-rendering="crispEdges"/><rect fill="#121212" x="0" y="343.1" width="12.2" height="24.65" shape-rendering="crispEdges"/><rect fill="#1e1e1e" x="12.2" y="343.1" width="1146.8" height="24.65" shape-rendering="crispEdges"/><rect fill="#121212" x="1159" y="343.1" width="12.2" height="24.65" shape-rendering="crispEdges"/><rect fill="#121212" x="0" y="367.5" width="12.2" height="24.65" shape-rendering="crispEdges"/><rect fill="#1e1e1e" x="12.2" y="367.5" width="1146.8" height="24.65" shape-rendering="crispEdges"/><rect fill="#121212" x="1159" y="367.5" width="12.2" height="24.65" shape-rendering="crispEdges"/><rect fill="#121212" x="0" y="391.9" width="12.2" height="24.65" shape-rendering="crispEdges"/><rect fill="#1e1e1e" x="12.2" y="391.9" width="1146.8" height="24.65" shape-rendering="crispEdges"/><rect fill="#121212" x="1159" y="391.9" width="12.2" height="24.65" shape-rendering="crispEdges"/><rect fill="#121212" x="0" y="416.3" width="12.2" height="24.65" shape-rendering="crispEdges"/><rect fill="#1e1e1e" x="12.2" y="416.3" width="1146.8" height="24.65" shape-rendering="crispEdges"/><rect fill="#121212" x="1159" y="416.3" width="12.2" height="24.65" shape-rendering="crispEdges"/><rect fill="#121212" x="0" y="440.7" width="12.2" height="24.65" shape-rendering="crispEdges"/><rect fill="#1e1e1e" x="12.2" y="440.7" width="1146.8" height="24.65" shape-rendering="crispEdges"/><rect fill="#121212" x="1159" y="440.7" width="12.2" height="24.65" shape-rendering="crispEdges"/><rect fill="#121212" x="0" y="465.1" width="12.2" height="24.65" shape-rendering="crispEdges"/><rect fill="#1e1e1e" x="12.2" y="465.1" width="1146.8" height="24.65" shape-rendering="crispEdges"/><rect fill="#121212" x="1159" y="465.1" width="12.2" height="24.65" shape-rendering="crispEdges"/><rect fill="#121212" x="0" y="489.5" width="12.2" height="24.65" shape-rendering="crispEdges"/><rect fill="#1e1e1e" x="12.2" y="489.5" width="1146.8" height="24.65" shape-rendering="crispEdges"/><rect fill="#121212" x="1159" y="489.5" width="12.2" height="24.65" shape-rendering="crispEdges"/><rect fill="#121212" x="0" y="513.9" width="12.2" height="24.65" shape-rendering="crispEdges"/><rect fill="#003054" x="12.2" y="513.9" width="12.2" height="24.65" shape-rendering="crispEdges"/><rect fill="#003054" x="24.4" y="513.9" width="12.2" height="24.65" shape-rendering="crispEdges"/><rect fill="#003054" x="36.6" y="513.9" width="12.2" height="24.65" shape-rendering="crispEdges"/><rect fill="#003054" x="48.8" y="513.9" width="12.2" height="24.65" shape-rendering="crispEdges"/><rect fill="#003054" x="61" y="513.9" width="12.2" height="24.65" shape-rendering="crispEdges"/><rect fill="#003054" x="73.2" y="513.9" width="12.2" height="24.65" shape-rendering="crispEdges"/><rect fill="#003054" x="85.4" y="513.9" width="12.2" height="24.65" shape-rendering="crispEdges"/><rect fill="#003054" x="97.6" y="513.9" width="12.2" height="24.65" shape-rendering="crispEdges"/><rect fill="#003054" x="109.8" y="513.9" width="12.2" height="24.65" shape-rendering="crispEdges"/><rect fill="#003054" x="122" y="513.9" width="12.2" height="24.65" shape-rendering="crispEdges"/><rect fill="#003054" x="134.2" y="513.9" width="12.2" height="24.65" shape-rendering="crispEdges"/><rect fill="#003054" x="146.4" y="513.9" width="12.2" height="24.65" shape-rendering="crispEdges"/><rect fill="#003054" x="158.6" y="513.9" width="12.2" height="24.65" shape-rendering="crispEdges"/><rect fill="#003054" x="170.8" y="513.9" width="12.2" height="24.65" shape-rendering="crispEdges"/><rect fill="#003054" x="183" y="513.9" width="12.2" height="24.65" shape-rendering="crispEdges"/><rect fill="#003054" x="195.2" y="513.9" width="12.2" height="24.65" shape-rendering="crispEdges"/><rect fill="#003054" x="207.4" y="513.9" width="12.2" height="24.65" shape-rendering="crispEdges"/><rect fill="#003054" x="219.6" y="513.9" width="12.2" height="24.65" shape-rendering="crispEdges"/><rect fill="#003054" x="231.8" y="513.9" width="12.2" height="24.65" shape-rendering="crispEdges"/><rect fill="#003054" x="244" y="513.9" width="12.2" height="24.65" shape-rendering="crispEdges"/><rect fill="#003054" x="256.2" y="513.9" width="12.2" height="24.65" shape-rendering="crispEdges"/><rect fill="#003054" x="268.4" y="513.9" width="12.2" height="24.65" shape-rendering="crispEdges"/><rect fill="#003054" x="280.6" y="513.9" width="12.2" height="24.65" shape-rendering="crispEdges"/><rect fill="#003054" x="292.8" y="513.9" width="12.2" height="24.65" shape-rendering="crispEdges"/><rect fill="#003054" x="305" y="513.9" width="12.2" height="24.65" shape-rendering="crispEdges"/><rect fill="#003054" x="317.2" y="513.9" width="12.2" height="24.65" shape-rendering="crispEdges"/><rect fill="#003054" x="329.4" y="513.9" width="12.2" height="24.65" shape-rendering="crispEdges"/><rect fill="#003054" x="341.6" y="513.9" width="12.2" height="24.65" shape-rendering="crispEdges"/><rect fill="#003054" x="353.8" y="513.9" width="12.2" height="24.65" shape-rendering="crispEdges"/><rect fill="#003054" x="366" y="513.9" width="12.2" height="24.65" shape-rendering="crispEdges"/><rect fill="#003054" x="378.2" y="513.9" width="12.2" height="24.65" shape-rendering="crispEdges"/><rect fill="#003054" x="390.4" y="513.9" width="12.2" height="24.65" shape-rendering="crispEdges"/><rect fill="#003054" x="402.6" y="513.9" width="12.2" height="24.65" shape-rendering="crispEdges"/><rect fill="#003054" x="414.8" y="513.9" width="12.2" height="24.65" shape-rendering="crispEdges"/><rect fill="#003054" x="427" y="513.9" width="12.2" height="24.65" shape-rendering="crispEdges"/><rect fill="#003054" x="439.2" y="513.9" width="12.2" height="24.65" shape-rendering="crispEdges"/><rect fill="#003054" x="451.4" y="513.9" width="12.2" height="24.65" shape-rendering="crispEdges"/><rect fill="#003054" x="463.6" y="513.9" width="12.2" height="24.65" shape-rendering="crispEdges"/><rect fill="#003054" x="475.8" y="513.9" width="12.2" height="24.65" shape-rendering="crispEdges"/><rect fill="#003054" x="488" y="513.9" width="12.2" height="24.65" shape-rendering="crispEdges"/><rect fill="#003054" x="500.2" y="513.9" width="12.2" height="24.65" shape-rendering="crispEdges"/><rect fill="#003054" x="512.4" y="513.9" width="12.2" height="24.65" shape-rendering="crispEdges"/><rect fill="#003054" x="524.6" y="513.9" width="12.2" height="24.65" shape-rendering="crispEdges"/><rect fill="#003054" x="536.8" y="513.9" width="12.2" height="24.65" shape-rendering="crispEdges"/><rect fill="#003054" x="549" y="513.9" width="12.2" height="24.65" shape-rendering="crispEdges"/><rect fill="#003054" x="561.2" y="513.9" width="12.2" height="24.65" shape-rendering="crispEdges"/><rect fill="#003054" x="573.4" y="513.9" width="12.2" height="24.65" shape-rendering="crispEdges"/><rect fill="#003054" x="585.6" y="513.9" width="12.2" height="24.65" shape-rendering="crispEdges"/><rect fill="#003054" x="597.8" y="513.9" width="12.2" height="24.65" shape-rendering="crispEdges"/><rect fill="#003054" x="610" y="513.9" width="12.2" height="24.65" shape-rendering="crispEdges"/><rect fill="#003054" x="622.2" y="513.9" width="12.2" height="24.65" shape-rendering="crispEdges"/><rect fill="#003054" x="634.4" y="513.9" width="12.2" height="24.65" shape-rendering="crispEdges"/><rect fill="#003054" x="646.6" y="513.9" width="12.2" height="24.65" shape-rendering="crispEdges"/><rect fill="#003054" x="658.8" y="513.9" width="12.2" height="24.65" shape-rendering="crispEdges"/><rect fill="#003054" x="671" y="513.9" width="12.2" height="24.65" shape-rendering="crispEdges"/><rect fill="#003054" x="683.2" y="513.9" width="12.2" height="24.65" shape-rendering="crispEdges"/><rect fill="#003054" x="695.4" y="513.9" width="12.2" height="24.65" shape-rendering="crispEdges"/><rect fill="#003054" x="707.6" y="513.9" width="12.2" height="24.65" shape-rendering="crispEdges"/><rect fill="#003054" x="719.8" y="513.9" width="12.2" height="24.65" shape-rendering="crispEdges"/><rect fill="#003054" x="732" y="513.9" width="12.2" height="24.65" shape-rendering="crispEdges"/><rect fill="#003054" x="744.2" y="513.9" width="12.2" height="24.65" shape-rendering="crispEdges"/><rect fill="#003054" x="756.4" y="513.9" width="12.2" height="24.65" shape-rendering="crispEdges"/><rect fill="#003054" x="768.6" y="513.9" width="12.2" height="24.65" shape-rendering="crispEdges"/><rect fill="#003054" x="780.8" y="513.9" width="12.2" height="24.65" shape-rendering="crispEdges"/><rect fill="#003054" x="793" y="513.9" width="12.2" height="24.65" shape-rendering="crispEdges"/><rect fill="#003054" x="805.2" y="513.9" width="12.2" height="24.65" shape-rendering="crispEdges"/><rect fill="#003054" x="817.4" y="513.9" width="12.2" height="24.65" shape-rendering="crispEdges"/><rect fill="#003054" x="829.6" y="513.9" width="12.2" height="24.65" shape-rendering="crispEdges"/><rect fill="#003054" x="841.8" y="513.9" width="12.2" height="24.65" shape-rendering="crispEdges"/><rect fill="#003054" x="854" y="513.9" width="12.2" height="24.65" shape-rendering="crispEdges"/><rect fill="#003054" x="866.2" y="513.9" width="12.2" height="24.65" shape-rendering="crispEdges"/><rect fill="#003054" x="878.4" y="513.9" width="12.2" height="24.65" shape-rendering="crispEdges"/><rect fill="#003054" x="890.6" y="513.9" width="12.2" height="24.65" shape-rendering="crispEdges"/><rect fill="#003054" x="902.8" y="513.9" width="12.2" height="24.65" shape-rendering="crispEdges"/><rect fill="#003054" x="915" y="513.9" width="12.2" height="24.65" shape-rendering="crispEdges"/><rect fill="#003054" x="927.2" y="513.9" width="12.2" height="24.65" shape-rendering="crispEdges"/><rect fill="#003054" x="939.4" y="513.9" width="12.2" height="24.65" shape-rendering="crispEdges"/><rect fill="#003054" x="951.6" y="513.9" width="12.2" height="24.65" shape-rendering="crispEdges"/><rect fill="#003054" x="963.8" y="513.9" width="12.2" height="24.65" shape-rendering="crispEdges"/><rect fill="#003054" x="976" y="513.9" width="12.2" height="24.65" shape-rendering="crispEdges"/><rect fill="#003054" x="988.2" y="513.9" width="12.2" height="24.65" shape-rendering="crispEdges"/><rect fill="#003054" x="1000.4" y="513.9" width="12.2" height="24.65" shape-rendering="crispEdges"/><rect fill="#003054" x="1012.6" y="513.9" width="12.2" height="24.65" shape-rendering="crispEdges"/><rect fill="#000000" x="1024.8" y="513.9" width="12.2" height="24.65" shape-rendering="crispEdges"/><rect fill="#000000" x="1037" y="513.9" width="12.2" height="24.65" shape-rendering="crispEdges"/><rect fill="#000000" x="1049.2" y="513.9" width="12.2" height="24.65" shape-rendering="crispEdges"/><rect fill="#000000" x="1061.4" y="513.9" width="12.2" height="24.65" shape-rendering="crispEdges"/><rect fill="#000000" x="1073.6" y="513.9" width="12.2" height="24.65" shape-rendering="crispEdges"/><rect fill="#000000" x="1085.8" y="513.9" width="12.2" height="24.65" shape-rendering="crispEdges"/><rect fill="#000000" x="1098" y="513.9" width="12.2" height="24.65" shape-rendering="crispEdges"/><rect fill="#000000" x="1110.2" y="513.9" width="12.2" height="24.65" shape-rendering="crispEdges"/><rect fill="#000000" x="1122.4" y="513.9" width="12.2" height="24.65" shape-rendering="crispEdges"/><rect fill="#000000" x="1134.6" y="513.9" width="12.2" height="24.65" shape-rendering="crispEdges"/><rect fill="#000000" x="1146.8" y="513.9" width="12.2" height="24.65" shape-rendering="crispEdges"/><rect fill="#121212" x="1159" y="513.9" width="12.2" height="24.65" shape-rendering="crispEdges"/><rect fill="#121212" x="0" y="538.3" width="1171.2" height="24.65" shape-rendering="crispEdges"/><rect fill="#121212" x="0" y="562.7" width="24.4" height="24.65" shape-rendering="crispEdges"/><rect fill="#121212" x="24.4" y="562.7" width="256.2" height="24.65" shape-rendering="crispEdges"/><rect fill="#4ebf71" x="280.6" y="562.7" width="195.2" height="24.65" shape-rendering="crispEdges"/><rect fill="#121212" x="475.8" y="562.7" width="12.2" height="24.65" shape-rendering="crispEdges"/><rect fill="#fea62b" x="488" y="562.7" width="195.2" height="24.65" shape-rendering="crispEdges"/><rect fill="#121212" x="683.2" y="562.7" width="12.2" height="24.65" shape-rendering="crispEdges"/><rect fill="#b93c5b" x="695.4" y="562.7" width="195.2" height="24.65" shape-rendering="crispEdges"/><rect fill="#121212" x="890.6" y="562.7" width="256.2" height="24.65" shape-rendering="crispEdges"/><rect fill="#121212" x="1146.8" y="562.7" width="24.4" height="24.65" shape-rendering="crispEdges"/><rect fill="#121212" x="0" y="587.1" width="24.4" height="24.65" shape-rendering="crispEdges"/><rect fill="#121212" x="24.4" y="587.1" width="256.2" height="24.65" shape-rendering="crispEdges"/><rect fill="#4ebf71" x="280.6" y="587.1" width="195.2" height="24.65" shape-rendering="crispEdges"/><rect fill="#121212" x="475.8" y="587.1" width="12.2" height="24.65" shape-rendering="crispEdges"/><rect fill="#fea62b" x="488" y="587.1" width="24.4" height="24.65" shape-rendering="crispEdges"/><rect fill="#fea62b" x="512.4" y="587.1" width="146.4" height="24.65" shape-rendering="crispEdges"/><rect fill="#fea62b" x="658.8" y="587.1" width="24.4" height="24.65" shape-rendering="crispEdges"/><rect fill="#121212" x="683.2" y="587.1" width="12.2" height="24.65" shape-rendering="crispEdges"/><rect fill="#b93c5b" x="695.4" y="587.1" width="183" height="24.65" shape-rendering="crispEdges"/><rect fill="#b93c5b" x="878.4" y="587.1" width="12.2" height="24.65" shape-rendering="crispEdges"/><rect fill="#121212" x="890.6" y="587.1" width="256.2" height="24.65" shape-rendering="crispEdges"/><rect fill="#121212" x="1146.8" y="587.1" width="24.4" height="24.65" shape-rendering="crispEdges"/><rect fill="#121212" x="0" y="611.5" width="24.4" height="24.65" shape-rendering="crispEdges"/><rect fill="#121212" x="24.4" y="611.5" width="256.2" height="24.65" shape-rendering="crispEdges"/><rect fill="#4ebf71" x="280.6" y="611.5" width="195.2" height="24.65" shape-rendering="crispEdges"/><rect fill="#121212" x="475.8" y="611.5" width="12.2" height="24.65" shape-rendering="crispEdges"/><rect fill="#fea62b" x="488" y="611.5" width="195.2" height="24.65" shape-rendering="crispEdges"/><rect fill="#121212" x="683.2" y="611.5" width="12.2" height="24.65" shape-rendering="crispEdges"/><rect fill="#b93c5b" x="695.4" y="611.5" width="195.2" height="24.65" shape-rendering="crispEdges"/><rect fill="#121212" x="890.6" y="611.5" width="256.2" height="24.65" shape-rendering="crispEdges"/><rect fill="#121212" x="1146.8" y="611.5" width="24.4" height="24.65" shape-rendering="crispEdges"/><rect fill="#121212" x="0" y="635.9" width="1171.2" height="24.65" shape-rendering="crispEdges"/><rect fill="#242f38" x="0" y="660.3" width="36.6" height="24.65" shape-rendering="crispEdges"/><rect fill="#242f38" x="36.6" y="660.3" width="97.6" height="24.65" shape-rendering="crispEdges"/><rect fill="#242f38" x="134.2" y="660.3" width="36.6" height="24.65" shape-rendering="crispEdges"/><rect fill="#242f38" x="170.8" y="660.3" width="61" height="24.65" shape-rendering="crispEdges"/><rect fill="#242f38" x="231.8" y="660.3" width="36.6" height="24.65" shape-rendering="crispEdges"/><rect fill="#242f38" x="268.4" y="660.3" width="85.4" height="24.65" shape-rendering="crispEdges"/><rect fill="#242f38" x="353.8" y="660.3" width="671" height="24.65" shape-rendering="crispEdges"/><rect fill="#242f38" x="1024.8" y="660.3" width="12.2" height="24.65" shape-rendering="crispEdges"/><rect fill="#242f38" x="1037" y="660.3" width="24.4" height="24.65" shape-rendering="crispEdges"/><rect fill="#242f38" x="1061.4" y="660.3" width="97.6" height="24.65" shape-rendering="crispEdges"/><rect fill="#242f38" x="1159" y="660.3" width="12.2" height="24.65" shape-rendering="crispEdges"/>
    <g class="terminal-2571827466-matrix">
    <text class="terminal-2571827466-r1" x="1171.2" y="20" textLength="12.2" clip-path="url(#terminal-2571827466-line-0)">
</text><text class="terminal-2571827466-r2" x="24.4" y="44.4" textLength="244" clip-path="url(#terminal-2571827466-line-1)">🛡️&#160;&#160;Nightly&#160;data&#160;job</text><text class="terminal-2571827466-r1" x="1171.2" y="44.4" textLength="12.2" clip-path="url(#terminal-2571827466-line-1)">
</text><text class="terminal-2571827466-r3" x="24.4" y="68.8" textLength="597.8" clip-path="url(#terminal-2571827466-line-2)">🟢&#160;1&#160;&#160;🟡&#160;1&#160;&#160;🔴&#160;1&#160;&#160;⛔&#160;2&#160;&#160;&#160;&#160;max&#160;risk:&#160;CRITICAL&#160;&#160;&#160;&#160;⏱&#160;12s</text><text class="terminal-2571827466-r1" x="1171.2" y="68.8" textLength="12.2" clip-path="url(#terminal-2571827466-line-2)">
</text><text class="terminal-2571827466-r1" x="1171.2" y="93.2" textLength="12.2" clip-path="url(#terminal-2571827466-line-3)">
</text><text class="terminal-2571827466-r2" x="12.2" y="117.6" textLength="36.6" clip-path="url(#terminal-2571827466-line-4)">&#160;#&#160;</text><text class="terminal-2571827466-r2" x="48.8" y="117.6" textLength="122" clip-path="url(#terminal-2571827466-line-4)">&#160;Risk&#160;&#160;&#160;&#160;&#160;</text><text class="terminal-2571827466-r2" x="170.8" y="117.6" textLength="951.6" clip-path="url(#terminal-2571827466-line-4)">&#160;Action&#160;&#160;&#160;&#160;&#160;&#160;&#160;&#160;&#160;&#160;&#160;&#160;&#160;&#160;&#160;&#160;&#160;&#160;&#160;&#160;&#160;&#160;&#160;&#160;&#160;&#160;&#160;&#160;&#160;&#160;&#160;&#160;&#160;&#160;&#160;&#160;&#160;&#160;&#160;&#160;&#160;&#160;&#160;&#160;&#160;&#160;&#160;&#160;&#160;&#160;&#160;&#160;&#160;&#160;&#160;&#160;&#160;&#160;&#160;&#160;&#160;&#160;&#160;&#160;&#160;&#160;&#160;&#160;&#160;&#160;&#160;</text><text class="terminal-2571827466-r2" x="1122.4" y="117.6" textLength="36.6" clip-path="url(#terminal-2571827466-line-4)">&#160;To</text><text class="terminal-2571827466-r1" x="1171.2" y="117.6" textLength="12.2" clip-path="url(#terminal-2571827466-line-4)">
</text><text class="terminal-2571827466-r4" x="12.2" y="142" textLength="36.6" clip-path="url(#terminal-2571827466-line-5)">&#160;1&#160;</text><text class="terminal-2571827466-r4" x="48.8" y="142" textLength="122" clip-path="url(#terminal-2571827466-line-5)">&#160;LOW&#160;&#160;&#160;&#160;&#160;&#160;</text><text class="terminal-2571827466-r4" x="170.8" y="142" textLength="951.6" clip-path="url(#terminal-2571827466-line-5)">&#160;Query&#160;active&#160;users:&#160;SELECT&#160;*&#160;FROM&#160;users&#160;WHERE&#160;status&#160;=&#160;&#x27;active&#x27;&#160;&#160;&#160;&#160;&#160;&#160;&#160;&#160;&#160;&#160;&#160;&#160;&#160;&#160;</text><text class="terminal-2571827466-r4" x="1122.4" y="142" textLength="36.6" clip-path="url(#terminal-2571827466-line-5)">&#160;sq</text><text class="terminal-2571827466-r1" x="1171.2" y="142" textLength="12.2" clip-path="url(#terminal-2571827466-line-5)">
</text><text class="terminal-2571827466-r4" x="12.2" y="166.4" textLength="36.6" clip-path="url(#terminal-2571827466-line-6)">&#160;2&#160;</text><text class="terminal-2571827466-r5" x="61" y="166.4" textLength="73.2" clip-path="url(#terminal-2571827466-line-6)">MEDIUM</text><text class="terminal-2571827466-r4" x="170.8" y="166.4" textLength="951.6" clip-path="url(#terminal-2571827466-line-6)">&#160;Export&#160;results&#160;to&#160;/tmp/active_users.csv&#160;&#160;&#160;&#160;&#160;&#160;&#160;&#160;&#160;&#160;&#160;&#160;&#160;&#160;&#160;&#160;&#160;&#160;&#160;&#160;&#160;&#160;&#160;&#160;&#160;&#160;&#160;&#160;&#160;&#160;&#160;&#160;&#160;&#160;&#160;&#160;&#160;&#160;</text><text class="terminal-2571827466-r4" x="1122.4" y="166.4" textLength="36.6" clip-path="url(#terminal-2571827466-line-6)">&#160;fi</text><text class="terminal-2571827466-r1" x="1171.2" y="166.4" textLength="12.2" clip-path="url(#terminal-2571827466-line-6)">
</text><text class="terminal-2571827466-r4" x="12.2" y="190.8" textLength="36.6" clip-path="url(#terminal-2571827466-line-7)">&#160;3&#160;</text><text class="terminal-2571827466-r6" x="61" y="190.8" textLength="48.8" clip-path="url(#terminal-2571827466-line-7)">HIGH</text><text class="terminal-2571827466-r4" x="170.8" y="190.8" textLength="951.6" clip-path="url(#terminal-2571827466-line-7)">&#160;Update&#160;billing&#160;flags:&#160;UPDATE&#160;accounts&#160;SET&#160;billed&#160;=&#160;1&#160;WHERE&#160;month&#160;=&#160;&#x27;2026-06&#x27;&#160;</text><text class="terminal-2571827466-r4" x="1122.4" y="190.8" textLength="36.6" clip-path="url(#terminal-2571827466-line-7)">&#160;ge</text><text class="terminal-2571827466-r1" x="1171.2" y="190.8" textLength="12.2" clip-path="url(#terminal-2571827466-line-7)">
</text><text class="terminal-2571827466-r4" x="12.2" y="215.2" textLength="36.6" clip-path="url(#terminal-2571827466-line-8)">&#160;4&#160;</text><text class="terminal-2571827466-r7" x="61" y="215.2" textLength="97.6" clip-path="url(#terminal-2571827466-line-8)">CRITICAL</text><text class="terminal-2571827466-r4" x="170.8" y="215.2" textLength="951.6" clip-path="url(#terminal-2571827466-line-8)">&#160;Drop&#160;the&#160;staging&#160;table:&#160;DROP&#160;TABLE&#160;users_staging&#160;&#160;&#160;&#160;&#160;&#160;&#160;&#160;&#160;&#160;&#160;&#160;&#160;&#160;&#160;&#160;&#160;&#160;&#160;&#160;&#160;&#160;&#160;&#160;&#160;&#160;&#160;&#160;&#160;</text><text class="terminal-2571827466-r4" x="1122.4" y="215.2" textLength="36.6" clip-path="url(#terminal-2571827466-line-8)">&#160;sq</text><text class="terminal-2571827466-r1" x="1171.2" y="215.2" textLength="12.2" clip-path="url(#terminal-2571827466-line-8)">
</text><text class="terminal-2571827466-r4" x="12.2" y="239.6" textLength="36.6" clip-path="url(#terminal-2571827466-line-9)">&#160;5&#160;</text><text class="terminal-2571827466-r7" x="61" y="239.6" textLength="97.6" clip-path="url(#terminal-2571827466-line-9)">CRITICAL</text><text class="terminal-2571827466-r4" x="170.8" y="239.6" textLength="951.6" clip-path="url(#terminal-2571827466-line-9)">&#160;Clean&#160;build&#160;artifacts:&#160;rm&#160;-rf&#160;/tmp/build&#160;&#160;&#160;&#160;&#160;&#160;&#160;&#160;&#160;&#160;&#160;&#160;&#160;&#160;&#160;&#160;&#160;&#160;&#160;&#160;&#160;&#160;&#160;&#160;&#160;&#160;&#160;&#160;&#160;&#160;&#160;&#160;&#160;&#160;&#160;&#160;&#160;</text><text class="terminal-2571827466-r4" x="1122.4" y="239.6" textLength="36.6" clip-path="url(#terminal-2571827466-line-9)">&#160;fi</text><text class="terminal-2571827466-r1" x="1171.2" y="239.6" textLength="12.2" clip-path="url(#terminal-2571827466-line-9)">
</text><text class="terminal-2571827466-r1" x="1171.2" y="264" textLength="12.2" clip-path="url(#terminal-2571827466-line-10)">
</text><text class="terminal-2571827466-r1" x="1171.2" y="288.4" textLength="12.2" clip-path="url(#terminal-2571827466-line-11)">
</text><text class="terminal-2571827466-r1" x="1171.2" y="312.8" textLength="12.2" clip-path="url(#terminal-2571827466-line-12)">
</text><text class="terminal-2571827466-r1" x="1171.2" y="337.2" textLength="12.2" clip-path="url(#terminal-2571827466-line-13)">
</text><text class="terminal-2571827466-r1" x="1171.2" y="361.6" textLength="12.2" clip-path="url(#terminal-2571827466-line-14)">
</text><text class="terminal-2571827466-r1" x="1171.2" y="386" textLength="12.2" clip-path="url(#terminal-2571827466-line-15)">
</text><text class="terminal-2571827466-r1" x="1171.2" y="410.4" textLength="12.2" clip-path="url(#terminal-2571827466-line-16)">
</text><text class="terminal-2571827466-r1" x="1171.2" y="434.8" textLength="12.2" clip-path="url(#terminal-2571827466-line-17)">
</text><text class="terminal-2571827466-r1" x="1171.2" y="459.2" textLength="12.2" clip-path="url(#terminal-2571827466-line-18)">
</text><text class="terminal-2571827466-r1" x="1171.2" y="483.6" textLength="12.2" clip-path="url(#terminal-2571827466-line-19)">
</text><text class="terminal-2571827466-r1" x="1171.2" y="508" textLength="12.2" clip-path="url(#terminal-2571827466-line-20)">
</text><text class="terminal-2571827466-r9" x="1024.8" y="532.4" textLength="12.2" clip-path="url(#terminal-2571827466-line-21)">▍</text><text class="terminal-2571827466-r1" x="1171.2" y="532.4" textLength="12.2" clip-path="url(#terminal-2571827466-line-21)">
</text><text class="terminal-2571827466-r1" x="1171.2" y="556.8" textLength="12.2" clip-path="url(#terminal-2571827466-line-22)">
</text><text class="terminal-2571827466-r10" x="280.6" y="581.2" textLength="195.2" clip-path="url(#terminal-2571827466-line-23)">▔▔▔▔▔▔▔▔▔▔▔▔▔▔▔▔</text><text class="terminal-2571827466-r11" x="488" y="581.2" textLength="195.2" clip-path="url(#terminal-2571827466-line-23)">▔▔▔▔▔▔▔▔▔▔▔▔▔▔▔▔</text><text class="terminal-2571827466-r12" x="695.4" y="581.2" textLength="195.2" clip-path="url(#terminal-2571827466-line-23)">▔▔▔▔▔▔▔▔▔▔▔▔▔▔▔▔</text><text class="terminal-2571827466-r1" x="1171.2" y="581.2" textLength="12.2" clip-path="url(#terminal-2571827466-line-23)">
</text><text class="terminal-2571827466-r13" x="280.6" y="605.6" textLength="183" clip-path="url(#terminal-2571827466-line-24)">&#160;✅&#160;Approve&#160;(a)&#160;</text><text class="terminal-2571827466-r14" x="512.4" y="605.6" textLength="158.6" clip-path="url(#terminal-2571827466-line-24)">&#160;✏️&#160;Edit&#160;(e)&#160;</text><text class="terminal-2571827466-r15" x="695.4" y="605.6" textLength="170.8" clip-path="url(#terminal-2571827466-line-24)">&#160;❌&#160;Reject&#160;(r)&#160;</text><text class="terminal-2571827466-r1" x="1171.2" y="605.6" textLength="12.2" clip-path="url(#terminal-2571827466-line-24)">
</text><text class="terminal-2571827466-r16" x="280.6" y="630" textLength="195.2" clip-path="url(#terminal-2571827466-line-25)">▁▁▁▁▁▁▁▁▁▁▁▁▁▁▁▁</text><text class="terminal-2571827466-r17" x="488" y="630" textLength="195.2" clip-path="url(#terminal-2571827466-line-25)">▁▁▁▁▁▁▁▁▁▁▁▁▁▁▁▁</text><text class="terminal-2571827466-r18" x="695.4" y="630" textLength="195.2" clip-path="url(#terminal-2571827466-line-25)">▁▁▁▁▁▁▁▁▁▁▁▁▁▁▁▁</text><text class="terminal-2571827466-r1" x="1171.2" y="630" textLength="12.2" clip-path="url(#terminal-2571827466-line-25)">
</text><text class="terminal-2571827466-r1" x="1171.2" y="654.4" textLength="12.2" clip-path="url(#terminal-2571827466-line-26)">
</text><text class="terminal-2571827466-r19" x="0" y="678.8" textLength="36.6" clip-path="url(#terminal-2571827466-line-27)">&#160;a&#160;</text><text class="terminal-2571827466-r4" x="36.6" y="678.8" textLength="97.6" clip-path="url(#terminal-2571827466-line-27)">Approve&#160;</text><text class="terminal-2571827466-r19" x="134.2" y="678.8" textLength="36.6" clip-path="url(#terminal-2571827466-line-27)">&#160;e&#160;</text><text class="terminal-2571827466-r4" x="170.8" y="678.8" textLength="61" clip-path="url(#terminal-2571827466-line-27)">Edit&#160;</text><text class="terminal-2571827466-r19" x="231.8" y="678.8" textLength="36.6" clip-path="url(#terminal-2571827466-line-27)">&#160;r&#160;</text><text class="terminal-2571827466-r4" x="268.4" y="678.8" textLength="85.4" clip-path="url(#terminal-2571827466-line-27)">Reject&#160;</text><text class="terminal-2571827466-r20" x="1024.8" y="678.8" textLength="12.2" clip-path="url(#terminal-2571827466-line-27)">▏</text><text class="terminal-2571827466-r19" x="1037" y="678.8" textLength="24.4" clip-path="url(#terminal-2571827466-line-27)">^p</text><text class="terminal-2571827466-r4" x="1061.4" y="678.8" textLength="97.6" clip-path="url(#terminal-2571827466-line-27)">&#160;palette</text>
    </g>
    </g>
</svg>
